<svg xmlns="http://www.w3.org/2000/svg" width="900" height="520" viewBox="0 0 900 520">
  <defs>
    <linearGradient id="bgd" x1="0%" y1="0%" x2="0%" y2="100%">
      <stop offset="0%" style="stop-color:#FAFBFC;stop-opacity:1" />
      <stop offset="100%" style="stop-color:#F0F2F5;stop-opacity:1" />
    </linearGradient>
  </defs>

  <!-- Background -->
  <rect width="900" height="520" rx="8" fill="url(#bgd)" stroke="#E0E3E8" stroke-width="1"/>

  <!-- Header bar -->
  <rect width="900" height="48" rx="8" fill="white" stroke="#E0E3E8" stroke-width="1"/>
  <rect x="0" y="40" width="900" height="8" fill="white"/>
  <text x="20" y="31" font-family="Inter, Helvetica, Arial, sans-serif" font-size="16" font-weight="700" fill="#1B3A4B">Dashboard Panvel - Vendas</text>
  <rect x="860" y="14" width="20" height="20" rx="4" fill="#E8EAED"/>

  <!-- KPI Row -->
  <!-- KPI 1: Total Vendas -->
  <rect x="16" y="60" width="168" height="72" rx="6" fill="white" stroke="#E0E3E8" stroke-width="1"/>
  <text x="28" y="82" font-family="Inter, Helvetica, Arial, sans-serif" font-size="11" font-weight="400" fill="#6B7280">Total Vendas</text>
  <text x="28" y="114" font-family="Inter, Helvetica, Arial, sans-serif" font-size="24" font-weight="700" fill="#1B3A4B">84.912</text>

  <!-- KPI 2: Faturamento -->
  <rect x="192" y="60" width="168" height="72" rx="6" fill="white" stroke="#E0E3E8" stroke-width="1"/>
  <text x="204" y="82" font-family="Inter, Helvetica, Arial, sans-serif" font-size="11" font-weight="400" fill="#6B7280">Faturamento</text>
  <text x="204" y="114" font-family="Inter, Helvetica, Arial, sans-serif" font-size="24" font-weight="700" fill="#1B3A4B">R$ 14.7M</text>

  <!-- KPI 3: Ticket Medio -->
  <rect x="368" y="60" width="168" height="72" rx="6" fill="white" stroke="#E0E3E8" stroke-width="1"/>
  <text x="380" y="82" font-family="Inter, Helvetica, Arial, sans-serif" font-size="11" font-weight="400" fill="#6B7280">Ticket Medio</text>
  <text x="380" y="114" font-family="Inter, Helvetica, Arial, sans-serif" font-size="24" font-weight="700" fill="#1B3A4B">R$ 173</text>

  <!-- KPI 4: Clientes Unicos -->
  <rect x="544" y="60" width="168" height="72" rx="6" fill="white" stroke="#E0E3E8" stroke-width="1"/>
  <text x="556" y="82" font-family="Inter, Helvetica, Arial, sans-serif" font-size="11" font-weight="400" fill="#6B7280">Clientes Unicos</text>
  <text x="556" y="114" font-family="Inter, Helvetica, Arial, sans-serif" font-size="24" font-weight="700" fill="#1B3A4B">1.000</text>

  <!-- KPI 5: Lojas Ativas -->
  <rect x="720" y="60" width="164" height="72" rx="6" fill="white" stroke="#E0E3E8" stroke-width="1"/>
  <text x="732" y="82" font-family="Inter, Helvetica, Arial, sans-serif" font-size="11" font-weight="400" fill="#6B7280">Lojas Ativas</text>
  <text x="732" y="114" font-family="Inter, Helvetica, Arial, sans-serif" font-size="24" font-weight="700" fill="#1B3A4B">120</text>

  <!-- Chart Row 1 -->
  <!-- Bar Chart: Faturamento por Cidade -->
  <rect x="16" y="144" width="432" height="170" rx="6" fill="white" stroke="#E0E3E8" stroke-width="1"/>
  <text x="28" y="168" font-family="Inter, Helvetica, Arial, sans-serif" font-size="12" font-weight="600" fill="#1B3A4B">Faturamento por Cidade</text>
  <!-- Bars -->
  <rect x="40" y="188" width="280" height="14" rx="2" fill="#FF3621" opacity="0.9"/>
  <text x="328" y="200" font-family="Inter, Helvetica, Arial, sans-serif" font-size="10" fill="#6B7280">Porto Alegre</text>
  <rect x="40" y="208" width="195" height="14" rx="2" fill="#FF5533" opacity="0.8"/>
  <text x="243" y="220" font-family="Inter, Helvetica, Arial, sans-serif" font-size="10" fill="#6B7280">Caxias do Sul</text>
  <rect x="40" y="228" width="160" height="14" rx="2" fill="#FF7033" opacity="0.7"/>
  <text x="208" y="240" font-family="Inter, Helvetica, Arial, sans-serif" font-size="10" fill="#6B7280">Pelotas</text>
  <rect x="40" y="248" width="130" height="14" rx="2" fill="#FF8844" opacity="0.6"/>
  <text x="178" y="260" font-family="Inter, Helvetica, Arial, sans-serif" font-size="10" fill="#6B7280">Canoas</text>
  <rect x="40" y="268" width="105" height="14" rx="2" fill="#FBB300" opacity="0.5"/>
  <text x="153" y="280" font-family="Inter, Helvetica, Arial, sans-serif" font-size="10" fill="#6B7280">Santa Maria</text>
  <rect x="40" y="288" width="80" height="14" rx="2" fill="#FBB300" opacity="0.4"/>
  <text x="128" y="300" font-family="Inter, Helvetica, Arial, sans-serif" font-size="10" fill="#6B7280">Novo Hamburgo</text>

  <!-- Pie Chart: Vendas por Categoria -->
  <rect x="456" y="144" width="428" height="170" rx="6" fill="white" stroke="#E0E3E8" stroke-width="1"/>
  <text x="468" y="168" font-family="Inter, Helvetica, Arial, sans-serif" font-size="12" font-weight="600" fill="#1B3A4B">Vendas por Categoria</text>
  <!-- Pie segments (simplified) -->
  <circle cx="600" cy="245" r="55" fill="none" stroke="#FF3621" stroke-width="28" stroke-dasharray="90 260" stroke-dashoffset="0"/>
  <circle cx="600" cy="245" r="55" fill="none" stroke="#FF7033" stroke-width="28" stroke-dasharray="70 280" stroke-dashoffset="-90"/>
  <circle cx="600" cy="245" r="55" fill="none" stroke="#FBB300" stroke-width="28" stroke-dasharray="55 295" stroke-dashoffset="-160"/>
  <circle cx="600" cy="245" r="55" fill="none" stroke="#003159" stroke-width="28" stroke-dasharray="45 305" stroke-dashoffset="-215"/>
  <circle cx="600" cy="245" r="55" fill="none" stroke="#8899AA" stroke-width="28" stroke-dasharray="90 260" stroke-dashoffset="-260"/>
  <!-- Legend -->
  <rect x="710" y="200" width="10" height="10" rx="2" fill="#FF3621"/>
  <text x="726" y="210" font-family="Inter, Helvetica, Arial, sans-serif" font-size="10" fill="#6B7280">Medicamentos</text>
  <rect x="710" y="218" width="10" height="10" rx="2" fill="#FF7033"/>
  <text x="726" y="228" font-family="Inter, Helvetica, Arial, sans-serif" font-size="10" fill="#6B7280">Higiene</text>
  <rect x="710" y="236" width="10" height="10" rx="2" fill="#FBB300"/>
  <text x="726" y="246" font-family="Inter, Helvetica, Arial, sans-serif" font-size="10" fill="#6B7280">Dermocosmeticos</text>
  <rect x="710" y="254" width="10" height="10" rx="2" fill="#003159"/>
  <text x="726" y="264" font-family="Inter, Helvetica, Arial, sans-serif" font-size="10" fill="#6B7280">Vitaminas</text>
  <rect x="710" y="272" width="10" height="10" rx="2" fill="#8899AA"/>
  <text x="726" y="282" font-family="Inter, Helvetica, Arial, sans-serif" font-size="10" fill="#6B7280">Outros</text>

  <!-- Chart Row 2 -->
  <!-- Horizontal Bar: Top 15 Produtos -->
  <rect x="16" y="326" width="432" height="180" rx="6" fill="white" stroke="#E0E3E8" stroke-width="1"/>
  <text x="28" y="350" font-family="Inter, Helvetica, Arial, sans-serif" font-size="12" font-weight="600" fill="#1B3A4B">Top 15 Produtos Mais Vendidos</text>
  <!-- Product bars -->
  <text x="28" y="376" font-family="Inter, Helvetica, Arial, sans-serif" font-size="9" fill="#6B7280">Dipirona 500mg</text>
  <rect x="130" y="366" width="220" height="12" rx="2" fill="#FF3621" opacity="0.85"/>
  <text x="28" y="396" font-family="Inter, Helvetica, Arial, sans-serif" font-size="9" fill="#6B7280">Paracetamol 750mg</text>
  <rect x="130" y="386" width="190" height="12" rx="2" fill="#FF3621" opacity="0.75"/>
  <text x="28" y="416" font-family="Inter, Helvetica, Arial, sans-serif" font-size="9" fill="#6B7280">Protetor Solar FPS50</text>
  <rect x="130" y="406" width="165" height="12" rx="2" fill="#FF3621" opacity="0.65"/>
  <text x="28" y="436" font-family="Inter, Helvetica, Arial, sans-serif" font-size="9" fill="#6B7280">Shampoo Anticaspa</text>
  <rect x="130" y="426" width="140" height="12" rx="2" fill="#FF3621" opacity="0.55"/>
  <text x="28" y="456" font-family="Inter, Helvetica, Arial, sans-serif" font-size="9" fill="#6B7280">Vitamina C 1000mg</text>
  <rect x="130" y="446" width="120" height="12" rx="2" fill="#FF3621" opacity="0.45"/>
  <text x="28" y="476" font-family="Inter, Helvetica, Arial, sans-serif" font-size="9" fill="#6B7280">Creme Hidratante</text>
  <rect x="130" y="466" width="100" height="12" rx="2" fill="#FF3621" opacity="0.35"/>
  <text x="28" y="496" font-family="Inter, Helvetica, Arial, sans-serif" font-size="9" fill="#6B7280">Desodorante Roll-On</text>
  <rect x="130" y="486" width="85" height="12" rx="2" fill="#FF3621" opacity="0.30"/>

  <!-- Table: Lojas Top 20 -->
  <rect x="456" y="326" width="428" height="180" rx="6" fill="white" stroke="#E0E3E8" stroke-width="1"/>
  <text x="468" y="350" font-family="Inter, Helvetica, Arial, sans-serif" font-size="12" font-weight="600" fill="#1B3A4B">Lojas Top 20 - Faturamento</text>
  <!-- Table header -->
  <rect x="468" y="360" width="404" height="20" rx="0" fill="#F3F4F6"/>
  <text x="478" y="375" font-family="Inter, Helvetica, Arial, sans-serif" font-size="10" font-weight="600" fill="#374151">Loja</text>
  <text x="680" y="375" font-family="Inter, Helvetica, Arial, sans-serif" font-size="10" font-weight="600" fill="#374151">Cidade</text>
  <text x="800" y="375" font-family="Inter, Helvetica, Arial, sans-serif" font-size="10" font-weight="600" fill="#374151">Faturamento</text>
  <!-- Table rows -->
  <line x1="468" y1="382" x2="872" y2="382" stroke="#E5E7EB" stroke-width="1"/>
  <text x="478" y="397" font-family="Inter, Helvetica, Arial, sans-serif" font-size="10" fill="#374151">Panvel - Moinhos de Vento</text>
  <text x="680" y="397" font-family="Inter, Helvetica, Arial, sans-serif" font-size="10" fill="#6B7280">Porto Alegre</text>
  <text x="800" y="397" font-family="Inter, Helvetica, Arial, sans-serif" font-size="10" fill="#374151">R$ 485K</text>
  <line x1="468" y1="404" x2="872" y2="404" stroke="#E5E7EB" stroke-width="1"/>
  <text x="478" y="419" font-family="Inter, Helvetica, Arial, sans-serif" font-size="10" fill="#374151">Panvel - Centro</text>
  <text x="680" y="419" font-family="Inter, Helvetica, Arial, sans-serif" font-size="10" fill="#6B7280">Caxias do Sul</text>
  <text x="800" y="419" font-family="Inter, Helvetica, Arial, sans-serif" font-size="10" fill="#374151">R$ 412K</text>
  <line x1="468" y1="426" x2="872" y2="426" stroke="#E5E7EB" stroke-width="1"/>
  <text x="478" y="441" font-family="Inter, Helvetica, Arial, sans-serif" font-size="10" fill="#374151">Panvel - Bela Vista</text>
  <text x="680" y="441" font-family="Inter, Helvetica, Arial, sans-serif" font-size="10" fill="#6B7280">Porto Alegre</text>
  <text x="800" y="441" font-family="Inter, Helvetica, Arial, sans-serif" font-size="10" fill="#374151">R$ 378K</text>
  <line x1="468" y1="448" x2="872" y2="448" stroke="#E5E7EB" stroke-width="1"/>
  <text x="478" y="463" font-family="Inter, Helvetica, Arial, sans-serif" font-size="10" fill="#374151">Panvel - Petrópolis</text>
  <text x="680" y="463" font-family="Inter, Helvetica, Arial, sans-serif" font-size="10" fill="#6B7280">Porto Alegre</text>
  <text x="800" y="463" font-family="Inter, Helvetica, Arial, sans-serif" font-size="10" fill="#374151">R$ 356K</text>
  <line x1="468" y1="470" x2="872" y2="470" stroke="#E5E7EB" stroke-width="1"/>
  <text x="478" y="485" font-family="Inter, Helvetica, Arial, sans-serif" font-size="10" fill="#374151">Panvel - Centro</text>
  <text x="680" y="485" font-family="Inter, Helvetica, Arial, sans-serif" font-size="10" fill="#6B7280">Pelotas</text>
  <text x="800" y="485" font-family="Inter, Helvetica, Arial, sans-serif" font-size="10" fill="#374151">R$ 334K</text>
  <line x1="468" y1="492" x2="872" y2="492" stroke="#E5E7EB" stroke-width="1"/>
  <text x="570" y="505" font-family="Inter, Helvetica, Arial, sans-serif" font-size="9" fill="#9CA3AF">... mais 15 linhas</text>
</svg>