<svg xmlns="http://www.w3.org/2000/svg" width="1200" height="300" viewBox="0 0 1200 300">
  <defs>
    <linearGradient id="bg" x1="0%" y1="0%" x2="100%" y2="100%">
      <stop offset="0%" style="stop-color:#1B3A4B;stop-opacity:1" />
      <stop offset="100%" style="stop-color:#122A45;stop-opacity:1" />
    </linearGradient>
  </defs>
  <!-- Background -->
  <rect width="1200" height="300" fill="url(#bg)"/>
  <!-- Accent bar top -->
  <rect width="1200" height="6" fill="#FF3621"/>
  <!-- Decorative elements bottom -->
  <rect x="0" y="294" width="400" height="6" fill="#FF7033"/>
  <rect x="400" y="294" width="400" height="6" fill="#FF3621"/>
  <rect x="800" y="294" width="400" height="6" fill="#FBB300"/>
  <!-- Databricks icon (top right) -->
  <g transform="translate(1070,30) scale(3.5)" opacity="0.12">
    <path fill="white" d="M.95 14.184L12 20.403l9.919-5.55v2.21L12 22.662l-10.484-5.96-.565.308v.77L12 24l11.05-6.218v-4.317l-.515-.309L12 19.118l-9.867-5.653v-2.21L12 16.805l11.05-6.218V6.32l-.515-.308L12 11.974 2.647 6.681 12 1.388l7.76 4.368.668-.411v-.566L12 0 .95 6.27v.72L12 13.207l9.919-5.55v2.26L12 15.52 1.516 9.56l-.565.308Z"/>
  </g>
  <!-- Title -->
  <text x="60" y="105" font-family="Inter, Helvetica, Arial, sans-serif" font-size="46" font-weight="700" fill="white">Workshop Hands-On</text>
  <text x="60" y="165" font-family="Inter, Helvetica, Arial, sans-serif" font-size="46" font-weight="700" fill="white">Databricks</text>
  <!-- Accent line -->
  <rect x="60" y="182" width="120" height="4" rx="2" fill="#FF3621"/>
  <!-- Subtitle -->
  <text x="60" y="218" font-family="Inter, Helvetica, Arial, sans-serif" font-size="28" font-weight="400" fill="#FF7033">Farmácias Panvel</text>
  <!-- Tags -->
  <text x="60" y="265" font-family="Inter, Helvetica, Arial, sans-serif" font-size="15" font-weight="400" fill="#8899AA">SDP  ·  Jobs  ·  Machine Learning  ·  AI/BI Genie + Dashboard</text>
</svg>
