<svg xmlns="http://www.w3.org/2000/svg" width="1200" height="300" viewBox="0 0 1200 300">
  <defs>
    <linearGradient id="bg" x1="0%" y1="0%" x2="100%" y2="100%">
      <stop offset="0%" style="stop-color:#1B3A4B;stop-opacity:1" />
      <stop offset="100%" style="stop-color:#122A45;stop-opacity:1" />
    </linearGradient>
  </defs>
  <!-- Background -->
  <rect width="1200" height="300" fill="url(#bg)"/>
  <!-- Accent bar top -->
  <rect width="1200" height="6" fill="#FF3621"/>
  <!-- Decorative elements -->
  <rect x="0" y="294" width="400" height="6" fill="#FF7033"/>
  <rect x="400" y="294" width="400" height="6" fill="#FF3621"/>
  <rect x="800" y="294" width="400" height="6" fill="#FBB300"/>
  <!-- Databricks diamond pattern -->
  <g opacity="0.08">
    <rect x="950" y="30" width="60" height="60" rx="5" transform="rotate(45,980,60)" fill="white"/>
    <rect x="1020" y="80" width="60" height="60" rx="5" transform="rotate(45,1050,110)" fill="white"/>
    <rect x="1090" y="30" width="60" height="60" rx="5" transform="rotate(45,1120,60)" fill="white"/>
    <rect x="950" y="130" width="60" height="60" rx="5" transform="rotate(45,980,160)" fill="white"/>
    <rect x="1020" y="180" width="60" height="60" rx="5" transform="rotate(45,1050,210)" fill="white"/>
    <rect x="1090" y="130" width="60" height="60" rx="5" transform="rotate(45,1120,160)" fill="white"/>
  </g>
  <!-- Title -->
  <text x="60" y="110" font-family="Inter, Helvetica, Arial, sans-serif" font-size="48" font-weight="700" fill="white">Workshop Hands-On</text>
  <text x="60" y="170" font-family="Inter, Helvetica, Arial, sans-serif" font-size="48" font-weight="700" fill="white">Databricks</text>
  <!-- Subtitle -->
  <text x="60" y="220" font-family="Inter, Helvetica, Arial, sans-serif" font-size="28" font-weight="400" fill="#FF7033">Farmácias Panvel</text>
  <!-- Tags -->
  <text x="60" y="265" font-family="Inter, Helvetica, Arial, sans-serif" font-size="16" font-weight="400" fill="#8899AA">SDP  |  Jobs  |  Machine Learning  |  AI/BI Genie + Dashboard</text>
</svg>
