<svg width="200" height="72" viewBox="0 0 200 72" fill="none" xmlns="http://www.w3.org/2000/svg">
<path fill-rule="evenodd" clip-rule="evenodd" d="M88.479 10.2366C90.9571 9.5258 93.1873 8.8861 97.0381 8.8861C104.137 8.8861 107.146 12.5534 108.134 13.8228C108.134 13.8229 108.134 13.823 108.134 13.823C109.121 15.0924 109.732 16.5499 109.92 18.2894C110.108 19.982 109.92 21.7686 109.403 23.6493L105.501 38.3654H105.454H94.4993C94.4993 38.3654 98.4485 23.6493 98.6836 22.709C99.7179 18.8536 97.4612 17.8192 95.0635 17.8192C94.7726 17.8192 94.4961 17.8327 94.2333 17.8582C90.2915 18.2418 89.4285 21.3615 88.9799 22.9831C88.9703 23.0178 88.9608 23.0518 88.9516 23.0851C88.4815 24.9187 85.0494 38.3654 85.0494 38.3654H74.001L81.4763 9.68538C81.4763 9.68538 84.1561 11.472 88.1053 10.3436C88.2307 10.3078 88.3552 10.2721 88.479 10.2366ZM49.8825 10.2496C52.0452 9.63837 57.4048 8.83909 60.9309 8.8861C66.241 8.98009 69.9071 10.1544 71.8354 12.4091C71.8364 12.4102 71.8373 12.4112 71.8383 12.4123C73.7659 14.6221 74.189 17.7252 73.1547 21.5335L68.7823 38.4125C68.7823 38.4125 68.6119 38.2714 68.2791 38.0863C67.2808 37.5309 64.8214 36.5788 61.119 37.8483C60.878 37.9305 60.6202 38.0128 60.3467 38.0938C58.4325 38.6608 55.7534 39.1647 52.7504 39.1647C52.4977 39.1647 52.2448 39.1611 51.9921 39.1536C48.2021 39.0417 44.4611 38.0775 42.1251 35.8736C41.8841 35.6502 41.6594 35.4159 41.4511 35.1722C39.9933 33.4662 39.3454 31.3012 39.6333 29.2442C39.8684 27.6927 40.5266 26.2352 41.6549 24.8247C42.5482 23.6963 43.9587 22.6149 45.3691 21.8627C47.0146 21.0164 48.5661 20.4522 50.1646 20.123C51.9511 19.7469 53.8787 19.5588 55.8063 19.5588C57.4518 19.5588 58.9563 19.6529 60.1787 19.8409C61.119 19.982 62.0123 20.1701 62.8585 20.4051C62.8652 20.3856 62.872 20.3661 62.8787 20.3467C62.883 20.3342 62.8873 20.3217 62.8917 20.3092C63.3518 18.9778 63.8105 17.6506 62.3414 16.5028C61.9182 16.1678 61.3783 15.9165 60.7574 15.7333C56.4109 14.4509 48.0959 16.5028 48.0959 16.5028C48.0959 16.5028 49.8355 10.3906 49.8825 10.2496ZM53.9101 32.3003C52.6735 32.2935 49.1799 31.4899 49.7885 28.8681C50.0235 27.8808 50.8698 26.9875 51.9981 26.4703C53.4464 25.7986 54.9789 25.5955 56.3114 25.5931C57.8551 25.5958 59.1238 25.8657 59.6702 25.982C59.701 25.9886 59.7295 25.9946 59.7556 26.0001C60.1044 26.0635 60.5175 26.1912 60.9514 26.3252C61.1608 26.3899 61.3749 26.4561 61.5891 26.5173C61.5855 26.5173 61.5759 26.5522 61.5581 26.6165C61.348 27.3795 59.9975 32.2835 53.9101 32.3003ZM166.103 8.8861C170.146 8.8861 174.236 9.82643 176.728 12.1773C176.728 12.1775 176.728 12.1777 176.728 12.1779C178.655 13.9643 179.595 16.4554 179.126 18.7588C179.126 18.759 179.126 18.7593 179.126 18.7596C179.111 18.8565 179.095 18.9531 179.077 19.0494C178.806 20.4931 178.162 21.8568 177.104 23.1791C176.992 23.3202 176.873 23.4605 176.746 23.5995C175.858 24.5727 174.624 25.4829 173.39 26.1412C173.287 26.194 173.184 26.2458 173.082 26.2965C171.55 27.0571 170.093 27.5722 168.594 27.8808C168.371 27.9278 168.145 27.9719 167.918 28.013C166.326 28.301 164.639 28.445 162.953 28.445C162.85 28.445 162.747 28.4446 162.646 28.4439C161.12 28.4328 159.726 28.3392 158.58 28.1629C158.484 28.1437 158.385 28.1226 158.283 28.0998C157.57 27.9407 156.728 27.703 156.031 27.5061C156.023 27.5036 156.014 27.5012 156.005 27.4987C155.835 27.4505 155.673 27.4049 155.524 27.3636C155.471 27.534 155.431 27.7111 155.404 27.8925C155.214 29.1627 155.671 30.6488 157.029 31.595C157.029 31.595 157.029 31.595 157.029 31.5951C161.448 34.6982 171.791 31.9712 173.437 31.1249C173.385 31.2835 173.331 31.4538 173.276 31.633C172.89 32.8873 172.433 34.5811 172.099 35.8182C172.056 35.9753 172.016 36.1252 171.978 36.2658C171.813 36.875 171.693 37.3114 171.65 37.4251C171.004 37.672 170.263 37.9247 169.405 38.1561C166.831 38.8503 163.199 39.3528 157.875 38.9296C157.543 38.9032 157.222 38.8712 156.911 38.834C152.251 38.2755 149.918 36.5289 147.626 34.369C142.877 29.8555 141.373 16.2677 157.358 10.1555C159.238 9.4503 162.67 8.8861 166.103 8.8861ZM166.855 21.4865C167.983 20.9693 168.829 20.076 169.064 19.0887C169.071 19.0617 169.077 19.0349 169.082 19.0083C169.604 16.4407 166.137 15.7032 164.881 15.6565C164.88 15.6565 164.88 15.6565 164.88 15.6565C164.469 15.6565 164.076 15.6787 163.701 15.7204C158.082 16.3454 156.512 21.3455 156.512 21.3455C157.17 21.5335 158.533 21.8626 159.05 21.9567C159.05 21.9567 159.05 21.9567 159.05 21.9567C159.076 21.9622 159.105 21.9682 159.136 21.9748C160.158 22.1922 163.706 22.9471 166.855 21.4865ZM187.541 2.25678C187.87 0.987331 189.093 -1.52588e-05 190.409 -1.52588e-05H190.456H199.812H199.859L189.328 38.3184H189.281H177.668H177.621L178.89 33.7108V33.6638L187.541 2.25678ZM140.245 3.19711C141.749 1.41048 144.006 0.376116 146.356 0.376116H146.403H157.593H157.64L120.874 41.9387L120.864 41.898L120.827 41.9387L109.638 0.376116H109.685H121.674H121.721L126.505 19.3282L140.245 3.19711ZM10.3903 -1.52588e-05H10.4373H28.773H28.82C44.9291 -1.52588e-05 43.5089 12.336 43.0742 13.9785C43.0712 13.9898 43.0683 14.0006 43.0654 14.0109C43.0609 14.0274 43.0564 14.0444 43.0518 14.0619C43.029 14.1493 43.0048 14.2491 42.9784 14.3603C42.9678 14.4047 42.9569 14.451 42.9455 14.4991C42.7627 15.2732 42.4724 16.5026 41.8409 17.9111C39.9466 22.1366 34.9821 27.9748 20.6394 27.9748H14.8096L13.1171 34.4631C13.117 34.4634 13.1169 34.4636 13.1169 34.4639C12.2792 37.681 9.91276 38.2538 6.67612 38.3128C6.46068 38.3168 6.24122 38.3184 6.0179 38.3184H0.0470336H3.05176e-05L10.3903 -1.52588e-05ZM22.9431 19.1827C29.2901 19.1827 31.4528 14.8572 31.8759 13.4467C32.299 12.0362 32.111 7.94577 26.2812 7.94577H20.3103L17.2544 19.1827H22.9431ZM196.427 57.6892C196.427 57.172 196.333 56.7959 196.145 56.5608C195.957 56.3257 195.628 56.2317 195.393 56.2317C195.064 56.2317 194.734 56.3257 194.452 56.5608C194.123 56.7489 193.888 57.078 193.7 57.4541C193.465 57.8303 193.324 58.2064 193.277 58.6295L192.102 65.776H188.67L189.845 58.6295L189.845 58.6292C189.892 58.3002 189.939 57.9712 189.939 57.6422C189.939 56.6549 189.516 56.1847 188.717 56.1847C188.293 56.1847 187.87 56.4198 187.447 56.8899C187.024 57.3601 186.742 57.9243 186.648 58.6295L185.473 65.776H182.04L184.015 53.8339C184.344 53.7868 184.767 53.7398 185.284 53.7398C185.755 53.7398 186.131 53.8809 186.413 54.0689C186.695 54.304 186.93 54.6331 187.071 55.1033C187.588 54.5391 188.152 54.116 188.717 53.8809C189.281 53.6458 189.892 53.5047 190.597 53.5047C191.255 53.5047 191.772 53.6458 192.196 53.9279C192.619 54.21 192.901 54.6331 193.136 55.2444C193.794 54.5391 194.405 54.0689 194.969 53.8339C195.534 53.5988 196.239 53.4577 197.038 53.4577C197.696 53.4577 198.26 53.5988 198.731 53.9279C199.201 54.21 199.53 54.6802 199.765 55.2444C199.906 55.6675 200 56.2317 200 56.8429C200 57.3601 199.953 57.9713 199.812 58.6295L198.637 65.776H195.205L196.38 58.6295C196.38 58.559 196.392 58.4767 196.403 58.3945C196.415 58.3122 196.427 58.2299 196.427 58.1594V57.6892ZM175.364 56.8429C174.847 57.4071 174.518 58.1594 174.283 59.1467C174.518 59.1937 174.753 59.1937 174.988 59.1467C175.929 59.1467 176.728 58.9587 177.339 58.5825C177.95 58.2064 178.279 57.6892 178.279 57.078C178.279 56.7489 178.185 56.4668 177.997 56.2787C177.809 56.0907 177.527 55.9966 177.151 55.9966C176.493 55.9966 175.882 56.2787 175.364 56.8429ZM176.164 63.6133C176.728 63.6133 177.245 63.4722 177.715 63.2372C178.185 63.0021 178.655 62.5789 179.126 62.0147C179.972 62.4379 180.395 62.9551 180.395 63.6133C180.395 64.2245 180.113 64.7417 179.455 65.1648C178.42 65.8701 177.198 66.1992 175.693 66.1992C174.095 66.1992 172.873 65.7761 172.026 64.8827C171.18 63.9894 170.757 62.767 170.757 61.1684C170.757 59.7109 171.086 58.3474 171.697 57.172C172.308 55.9496 173.155 55.0563 174.189 54.4451C175.223 53.8339 176.399 53.5047 177.715 53.5047C178.843 53.5047 179.737 53.7868 180.395 54.3981C181.053 54.9623 181.382 55.7615 181.382 56.7019C181.382 58.2064 180.771 59.3348 179.643 60.0871C178.514 60.8863 176.916 61.2625 174.894 61.2625C174.674 61.2625 174.486 61.2463 174.33 61.233L174.33 61.233C174.22 61.2235 174.126 61.2155 174.048 61.2155V61.3565C174.048 62.0147 174.283 62.5789 174.659 63.0021C175.035 63.4252 175.552 63.6133 176.164 63.6133ZM162.435 66.1522C160.649 66.1522 159.144 65.7761 157.828 64.9768L160.696 47.9568C161.025 47.9098 161.448 47.8628 161.918 47.8628C163.094 47.8628 163.705 48.474 163.705 49.6494V49.8845C163.705 49.9315 163.693 49.9785 163.681 50.0255C163.67 50.0725 163.658 50.1196 163.658 50.1666L162.906 54.6331C163.705 53.8339 164.692 53.4577 165.961 53.4577C168.359 53.4577 169.582 55.0093 169.582 58.1594C169.582 59.6639 169.253 61.0744 168.594 62.2968C167.936 63.5663 167.09 64.5066 166.008 65.1648C164.927 65.8231 163.752 66.1522 162.435 66.1522ZM161.354 63.5193L161.777 63.6603C161.918 63.7073 162.2 63.7073 162.576 63.7073C163.235 63.7073 163.846 63.4722 164.363 62.9551C164.88 62.4379 165.303 61.7796 165.585 60.9333C165.867 60.0871 166.008 59.1467 166.008 58.1124C166.008 56.7019 165.491 55.9966 164.504 55.9966C163.987 55.9966 163.47 56.2317 163.047 56.6549C162.623 57.078 162.341 57.5952 162.247 58.2534L161.354 63.5193ZM152.327 64.6006C152.327 64.8827 152.28 65.3059 152.139 65.776L142.689 65.729L143.065 63.4722L143.584 62.8153L143.585 62.8146C144.922 61.1217 145.934 59.841 146.686 59.0057C147.485 58.0653 148.331 57.172 149.13 56.3728H144.1C144.1 55.3854 144.241 54.7272 144.617 54.304C144.993 53.8809 145.557 53.6928 146.403 53.6928H152.186C152.609 53.6928 152.985 53.7868 153.174 53.9749C153.409 54.163 153.503 54.4451 153.503 54.8682C153.503 55.1033 153.456 55.4794 153.362 55.9966C151.669 57.6892 150.353 59.0527 149.412 60.0871C148.519 61.1214 147.673 62.1558 146.921 63.0961H150.447C151.105 63.0961 151.575 63.2372 151.857 63.4722C152.186 63.7073 152.327 64.0835 152.327 64.6006ZM138.364 60.9804L139.163 56.3257C138.881 56.0907 138.505 55.9966 138.082 56.0436C137.471 56.0436 136.859 56.2787 136.342 56.7959C135.825 57.3131 135.402 57.9713 135.12 58.8176C134.838 59.6169 134.697 60.5572 134.697 61.5916C134.697 62.908 135.167 63.5663 136.06 63.5663C136.436 63.5663 136.765 63.4722 137.095 63.2372C137.424 63.0021 137.659 62.673 137.894 62.2968C138.129 61.9207 138.27 61.4505 138.364 60.9804ZM141.843 65.682C141.279 66.0111 140.668 66.1522 139.962 66.1522C138.834 66.1522 138.176 65.588 138.129 64.5066C137.236 65.635 136.154 66.1992 134.838 66.1992C133.662 66.1992 132.769 65.8231 132.205 65.1178C131.641 64.4126 131.359 63.2372 131.359 61.6856C131.359 60.1811 131.688 58.7706 132.346 57.5011C132.957 56.2317 133.851 55.2444 134.885 54.5391C135.919 53.8339 137.095 53.5047 138.364 53.5047C139.069 53.5047 139.868 53.5988 140.668 53.8339C141.467 54.0689 142.219 54.351 142.877 54.7742L141.561 62.72C141.514 63.0021 141.467 63.2842 141.467 63.5663C141.467 64.3656 141.608 65.0708 141.843 65.682ZM132.534 51.5771C132.299 51.1069 132.064 50.7308 131.735 50.5427C131.406 50.3546 131.03 50.2606 130.559 50.2606C129.995 50.2606 129.525 50.4017 129.243 50.7308C128.961 51.0599 128.726 51.6241 128.585 52.3764L128.35 53.7398H132.064L131.641 56.3257H127.927L126.328 66.0111C126.046 67.7037 125.529 68.9732 124.683 69.8195C123.836 70.6658 122.708 71.0889 121.298 71.0889C120.357 71.0889 119.558 70.9008 118.947 70.5247C118.336 70.1956 118.007 69.6784 118.007 69.0672C118.007 68.409 118.383 67.8448 119.182 67.3746C119.464 67.7507 119.746 67.9858 120.028 68.1739C120.31 68.3149 120.686 68.409 121.063 68.409C121.58 68.409 121.956 68.2209 122.285 67.8448C122.567 67.4216 122.802 66.8574 122.943 66.0111L125.153 52.6584C125.435 50.9188 125.999 49.6494 126.892 48.8501C127.786 48.0508 129.008 47.6277 130.559 47.6277C131.97 47.6277 132.957 47.9568 133.615 48.568C133.992 48.9441 134.18 49.3673 134.18 49.8375C134.18 50.2136 134.039 50.5427 133.757 50.8718C133.474 51.2009 133.051 51.436 132.534 51.5771ZM116.69 63.0961C117.019 63.3312 117.207 63.6133 117.207 63.9424C117.207 64.2245 117.066 64.5066 116.737 64.7887C115.797 65.682 114.528 66.1522 112.835 66.1522C111.425 66.1522 110.296 65.729 109.497 64.8827C108.698 64.0364 108.322 62.861 108.322 61.3095C108.322 59.852 108.604 58.4885 109.215 57.3131C109.826 56.1377 110.625 55.2444 111.613 54.5861C112.6 53.9279 113.681 53.5988 114.81 53.5988C115.797 53.5988 116.596 53.8809 117.207 54.3981C117.819 54.9152 118.101 55.6675 118.101 56.5608C118.101 57.5011 117.819 58.3004 117.254 58.9587C116.69 59.6639 115.891 60.1341 114.904 60.5102C113.916 60.8393 112.788 61.0274 111.613 61.0274C111.27 61.0274 110.996 61.01 110.782 60.9964C110.643 60.9876 110.529 60.9804 110.437 60.9804V61.3095C110.437 62.2968 110.625 63.0491 111.142 63.6133C111.66 64.1775 112.271 64.4596 113.117 64.4596C114.386 64.4596 115.468 63.9424 116.361 62.861L116.69 63.0961ZM112.083 56.5138C111.331 57.3131 110.86 58.3004 110.625 59.5699C110.813 59.5699 111.095 59.5699 111.378 59.6169C112.741 59.6169 113.869 59.3348 114.763 58.8176C115.656 58.2534 116.079 57.5952 116.079 56.7489C116.079 55.8086 115.609 55.3384 114.622 55.3384C113.634 55.3384 112.788 55.7145 112.083 56.5138ZM106.629 55.3384C106.629 55.5265 106.629 55.7145 106.582 55.9496L105.36 63.4252C105.313 63.5193 105.313 63.6133 105.313 63.7073V63.9424C105.313 64.1775 105.36 64.3656 105.454 64.5066C105.595 64.6477 105.783 64.6947 106.018 64.6947C106.129 64.6947 106.241 64.6652 106.376 64.6297L106.377 64.6293C106.412 64.62 106.449 64.6103 106.488 64.6006L106.676 65.588C106.532 65.6964 106.359 65.7493 106.159 65.8107L106.158 65.8109L106.156 65.8114C106.097 65.8297 106.035 65.8486 105.971 65.8701C105.689 65.9171 105.407 65.9641 105.172 65.9641C104.56 65.9641 104.09 65.8701 103.761 65.588C103.432 65.3529 103.244 64.9298 103.197 64.3656C102.633 65.0238 102.069 65.4939 101.504 65.776C100.94 66.0582 100.282 66.1992 99.5299 66.1992C98.4956 66.1992 97.6963 65.9171 97.1321 65.3059C96.568 64.6947 96.2859 63.8954 96.2859 62.814C96.2859 62.2028 96.3329 61.6386 96.4269 61.0744L97.6023 53.8809C97.7903 53.8339 97.9314 53.8339 98.0724 53.8339C98.4956 53.8339 98.8717 53.9279 99.1067 54.21C99.3418 54.4921 99.4829 54.8682 99.4829 55.3384V55.3385C99.4829 55.5265 99.4829 55.7146 99.4359 55.9496L98.5896 61.0744C98.5426 61.4035 98.4956 61.8267 98.4956 62.3438C98.4956 63.7073 99.1068 64.4126 100.329 64.4126C100.846 64.4126 101.316 64.2715 101.787 63.9894C102.21 63.6603 102.633 63.2842 102.915 62.814C103.244 62.3438 103.432 61.8267 103.526 61.2155L104.748 53.8809C104.937 53.8339 105.078 53.8339 105.219 53.8339C105.642 53.8339 106.018 53.9279 106.253 54.21C106.488 54.4921 106.629 54.8682 106.629 55.3384ZM91.3964 61.2625L92.2896 55.7145C91.7725 55.4324 91.1613 55.2914 90.5031 55.2444C89.6568 55.2444 88.9046 55.5265 88.1994 56.1377C87.4941 56.7489 86.977 57.5482 86.6009 58.5355C86.2248 59.5699 86.0367 60.6513 86.0367 61.8267C86.0367 63.4722 86.7889 64.3185 88.1994 64.3185C88.6695 64.3185 89.1397 64.1775 89.6098 63.8954C90.0799 63.6133 90.4561 63.2372 90.7852 62.767C91.1143 62.3438 91.3023 61.8267 91.3964 61.2625ZM94.5934 54.8682L91.8665 71.23V71.1829H89.7508L90.8322 64.5066C90.4091 64.9768 89.8919 65.3529 89.2807 65.635C88.6695 65.9171 88.0583 66.0582 87.4941 66.0582C86.2718 66.0582 85.3315 65.729 84.7203 64.9768C84.1091 64.2715 83.78 63.1901 83.78 61.8267C83.78 60.3221 84.1091 58.9116 84.7203 57.6422C85.3785 56.3727 86.1777 55.3854 87.2121 54.6802C88.2464 53.9749 89.3747 53.6458 90.6441 53.6458C92.0546 53.6458 93.371 54.0219 94.5934 54.8682ZM75.9756 55.2444C76.6808 55.4795 77.339 55.7616 77.8561 56.1377L76.3517 64.6947C76.3047 64.7887 76.3047 64.9298 76.3047 64.9768V65.2119C76.3047 65.447 76.3517 65.6821 76.4457 65.7761C76.5868 65.9171 76.7748 65.9641 77.0099 65.9641C77.1215 65.9641 77.2331 65.9347 77.368 65.8991C77.4036 65.8897 77.4408 65.8799 77.48 65.8701L77.6681 66.8575C77.5235 66.9659 77.3511 67.0188 77.1509 67.0802C77.1193 67.0898 77.0871 67.0997 77.0541 67.1101C77.0242 67.1195 76.9938 67.1292 76.9629 67.1396C76.6808 67.1866 76.3987 67.2336 76.1636 67.2336C75.5524 67.2336 75.0353 67.0926 74.7532 66.8575C74.4711 66.6224 74.236 66.1992 74.189 65.635C73.7659 66.1992 73.2957 66.6224 72.7316 66.9515C72.1674 67.2806 71.5562 67.4217 70.945 67.4217C69.8167 67.4217 68.9234 67.0455 68.3122 66.2933C67.701 65.541 67.3719 64.4596 67.3719 63.0961C67.3719 61.6857 67.701 60.2752 68.3122 59.0057C68.9234 57.6893 69.7226 56.7019 70.7099 55.9967C71.6972 55.2914 72.7786 54.9153 73.9539 54.9153C74.6121 54.9153 75.2703 55.0093 75.9756 55.2444ZM75.4123 56.9126C75.1891 56.7977 74.9874 56.6939 74.7532 56.6549L73.9069 56.5138C73.1077 56.5138 72.4025 56.843 71.7443 57.4542C71.0861 58.0654 70.5689 58.8647 70.1928 59.852C69.8167 60.8394 69.6286 61.8737 69.6286 63.0021C69.6286 64.7417 70.3338 65.588 71.6972 65.588C72.1204 65.588 72.5905 65.447 73.0136 65.1649C73.4368 64.8828 73.8129 64.5537 74.095 64.0835C74.3771 63.6603 74.5651 63.1432 74.6592 62.532L75.5524 56.984C75.5045 56.96 75.458 56.9361 75.4123 56.9126ZM65.2562 60.0401L64.0809 67.0455V66.9985H61.9182L63.0936 59.9931C63.1876 59.4289 63.2346 58.9587 63.2346 58.5356C63.2346 57.9243 63.0936 57.5012 62.8115 57.1721C62.5294 56.843 62.1063 56.7019 61.5891 56.7019C61.0249 56.7019 60.5078 56.7959 59.9906 57.078C59.5205 57.3601 59.0973 57.7363 58.7682 58.1594C58.4861 58.6296 58.2511 59.1468 58.157 59.758L56.9347 66.9985H54.772L56.7466 55.1033C56.9347 55.0563 57.0757 55.0563 57.2168 55.0563C58.063 55.0563 58.5332 55.4795 58.5332 56.3728V56.6549C59.0503 56.0907 59.6145 55.6675 60.2727 55.3384C60.9309 55.0093 61.6361 54.8683 62.3413 54.8683C63.3286 54.8683 64.1279 55.1504 64.6451 55.7616C65.1622 56.3728 65.4443 57.1721 65.4443 58.2535C65.4443 58.7306 65.3643 59.2878 65.278 59.8881L65.2562 60.0401ZM54.3959 51.1069C54.3959 51.5301 54.2548 51.9532 53.9727 52.2353C53.6907 52.5645 53.3616 52.7055 52.8914 52.7055C52.5153 52.7055 52.2332 52.5645 52.0452 52.3294C51.8101 52.0943 51.716 51.8122 51.716 51.4361C51.716 50.9659 51.8571 50.5427 52.1392 50.2606C52.4213 49.9315 52.7974 49.7905 53.2205 49.7905C53.5966 49.7905 53.8787 49.9315 54.0668 50.1666C54.3018 50.4017 54.3959 50.7308 54.3959 51.1069ZM53.0615 65.8991C53.097 65.8897 53.1342 65.8799 53.1735 65.8701L53.3145 66.9515C53.1699 67.06 52.9976 67.1128 52.7974 67.1742C52.7372 67.1927 52.6745 67.2119 52.6093 67.2336C52.3272 67.2806 52.0452 67.3276 51.8101 67.3276C51.1049 67.3276 50.5877 67.1396 50.2586 66.8104C49.9295 66.4343 49.7884 65.9642 49.7884 65.3529V65.0708C49.7884 65.0238 49.8002 64.9768 49.812 64.9298C49.8237 64.8828 49.8355 64.8358 49.8355 64.7887L51.434 55.1974C51.622 55.1504 51.7631 55.1504 51.9041 55.1504C52.3272 55.1504 52.7034 55.2444 52.9384 55.5265C53.1735 55.8086 53.3145 56.1847 53.3145 56.6549C53.3145 56.843 53.3145 57.031 53.2675 57.2661L52.0452 64.6947C51.9981 64.7887 51.9981 64.8828 51.9981 64.9768V65.2119C51.9981 65.447 52.0451 65.6821 52.1392 65.7761C52.2802 65.9171 52.4683 65.9641 52.7034 65.9641C52.815 65.9641 52.9266 65.9347 53.0615 65.8991ZM45.8122 53.4677C45.8017 53.5143 45.7922 53.5565 45.7922 53.5988L45.4631 55.1033H48.8952L48.6131 56.7959H45.228L44.3818 62.1088C44.1937 63.1432 44.1467 63.8954 44.1467 64.3186C44.1937 65.2589 44.6168 65.7291 45.5101 65.7291C45.8392 65.7291 46.1683 65.635 46.4504 65.447C46.7325 65.2589 47.0146 65.0238 47.2497 64.6947L47.6728 65.0708C47.9079 65.3059 48.0019 65.541 48.0019 65.8231C48.0019 66.1052 47.8138 66.4343 47.4377 66.7164C46.8735 67.1866 46.0743 67.4217 45.04 67.4217C44.0527 67.4217 43.2534 67.1396 42.7363 66.6224C42.2191 66.1052 41.937 65.3059 41.937 64.2716C41.937 64.1844 41.955 64.0254 41.9798 63.8057L41.9798 63.8056C41.9951 63.6698 42.0131 63.5108 42.031 63.3312L43.9586 51.5301C44.1467 51.4831 44.2877 51.4831 44.4288 51.4831C45.4161 51.4831 45.8862 51.9532 45.8862 52.9406C45.8862 52.9876 45.8745 53.0463 45.8627 53.1051L45.8627 53.1051L45.8627 53.1052C45.851 53.164 45.8392 53.2227 45.8392 53.2697C45.8392 53.3474 45.825 53.4108 45.8122 53.4677ZM33.6624 57.3601C33.0513 57.9243 32.6281 58.6296 32.299 59.5699C31.9699 60.5102 31.7819 61.4976 31.7819 62.626C31.7819 63.5663 31.9699 64.3186 32.3931 64.8828C32.8162 65.447 33.3804 65.7291 34.0856 65.7291C34.8848 65.7291 35.543 65.494 36.1542 64.9298C36.7654 64.3656 37.1885 63.6133 37.5176 62.72C37.8467 61.7797 37.9878 60.7923 37.9878 59.6639C37.9878 58.7236 37.7997 57.9714 37.3766 57.4072C37.0005 56.843 36.3893 56.5609 35.6841 56.5609C34.9318 56.5609 34.2736 56.843 33.6624 57.3601ZM39.3512 63.7074C38.8341 64.9298 38.0818 65.8701 37.1415 66.4813C36.2012 67.1396 35.1199 67.4217 33.8505 67.4217C32.4871 67.4217 31.4528 66.9515 30.7005 66.1052C29.9483 65.2589 29.5722 64.0835 29.5722 62.579C29.5722 61.1215 29.8543 59.805 30.4184 58.5826C30.9826 57.3601 31.7348 56.4668 32.6751 55.8086C33.6154 55.1974 34.6968 54.8683 35.8721 54.8683C36.7654 54.8683 37.5647 55.1033 38.1758 55.4795C38.8341 55.8556 39.3042 56.4198 39.6333 57.1721C39.9624 57.9243 40.1505 58.7706 40.1505 59.711C40.1505 61.1685 39.9154 62.4849 39.3512 63.7074ZM23.4603 55.1033C24.3065 55.1033 24.7767 55.5265 24.7767 56.4198H24.8707V56.7019C25.9991 55.5265 27.0804 54.9153 28.1147 54.9153C28.6319 54.9153 29.102 55.0563 29.4311 55.3384C29.7602 55.6205 29.9483 55.9496 29.9483 56.3728C29.9483 56.843 29.6662 57.2191 29.1961 57.5482L28.7729 57.7833C28.4908 57.1251 27.9737 56.7959 27.3155 56.7959C26.6573 56.7959 26.0461 57.1251 25.4819 57.6893C24.9177 58.2535 24.5886 59.0057 24.4006 59.899L23.1782 67.0455H21.0155L22.9901 55.1504C23.1782 55.1033 23.3192 55.1033 23.4603 55.1033ZM6.7231 60.9334H11.8007L10.4843 52.9406L6.7231 60.9334ZM14.9892 66.9985L14.9977 67.0455V66.9985H14.9892ZM12.1298 51.0599L14.9892 66.9985H12.835L12.1298 62.673H5.92385L3.90222 66.9985H1.69254L9.87307 50.3077C10.2962 50.1196 10.6253 50.0256 10.9074 50.0256C11.5656 50.0256 11.9887 50.4017 12.1298 51.0599Z" fill="#00529B"/>
</svg>
